<?xml version="1.0" encoding="utf-8"?>
<!-- Generator: Adobe Illustrator 24.2.3, SVG Export Plug-In . SVG Version: 6.00 Build 0)  -->
<svg version="1.1" id="Layer_1" xmlns="http://www.w3.org/2000/svg" xmlns:xlink="http://www.w3.org/1999/xlink" x="0px" y="0px"
	 viewBox="0 0 394.6 298.5" style="enable-background:new 0 0 394.6 298.5;" xml:space="preserve">
<path d="M186.1,151c-2.7,1.9-4.1,4.6-6,6.9c-2.7,3.2-5.2,6.7-7.7,10s-5.3,6.8-7.6,10.4c-0.9,1.4-0.8,2.9-0.9,4.4
	c-0.3,4.8-0.6,9.5-0.5,14.3c0.1,3.5,0.3,7,0.2,10.5c-0.1,2.3,0.1,4.5-0.5,6.9c-0.3,1.5-0.4,3-0.2,4.5c0.1,2.4,0,4.8-0.1,7.2
	c-0.4,8.4-0.6,16.9-1.2,25.3c-0.2,4.8-0.8,9.7-1.6,14.5c-1.1,5.6-2.4,11.3-5.6,16.1c-3.6,5.3-8.1,10-14.4,12
	c-3.5,1.1-7.2,1.5-10.9,1.2c-5.4-0.4-9.5-3.2-13.3-6.8c-6.6-6.3-9.7-14.3-10.7-23.1c-0.5-4.8,0.2-9.7,0.6-14.5
	c0.4-5.2,1.8-10.2,3.2-15.2c0.9-3.6,2.1-7.2,3.7-10.6c1-2,1.2-4.3,2.4-6.2c2.3-3.9,4.6-7.8,6.9-11.7c2.2-3.7,4-7.7,6.5-11.2
	c2.5-3.5,4.3-7.8,7.5-10.9c0.8-0.7,0.6-1.9,1.4-2.7c2-2,3.7-4.3,5.6-6.4c0.9-0.8,1.3-2,1.1-3.2c-0.9-5.8-0.9-11.6-1.4-17.4
	c-0.3-2.7-0.3-5.4-0.6-8.1c-0.1-1.2,0.6-2.5-0.6-3.5c-0.2-0.1,0-0.8,0.1-1.1s0.4-0.7,0.3-0.8c-1-2-0.3-4.2-1-6.2
	c-0.3-1.1-0.4-2.2-0.1-3.3c0.1-0.3,0.4-0.6,0.1-0.9c-1.1-1.3-0.7-2.8-0.7-4.3c-0.2-5.9-0.9-11.9-2.1-17.7c-0.5-3.2-1.8-6.2-3.6-8.8
	c-1.2-1.6-2.1-3.3-3.8-4.6c-2.9-2.4-6.6-3.4-10.2-2.9c-1.8,0.1-3.6,0.5-5.4,1.1c-1.3,0.5-2.7,0.9-3.6,2.2c-0.4,0.5-0.9,0.9-1.5,1.1
	c-3,1.5-5.1,4-7.1,6.6c-2.1,2.8-3.9,5.8-5.4,9c-2.8,5.7-4.3,11.8-5.9,18c-1.5,5.9-3,11.9-4.4,17.8c-0.3,1.2-0.5,2.5-0.6,3.8
	c-0.2,1.6-0.5,3.1-0.9,4.6c-0.6,2-0.4,4.1-0.7,6.2c-0.3,1.7,0,3.5-0.6,5.2c-0.2,0.8-0.2,1.6-0.1,2.4c0.4,3.6,0.3,7.2-0.3,10.7
	c-0.1,0.4-0.1,0.8,0,1.2c0.5,2.5,0.3,5.1-0.6,7.4c-0.2,0.4-0.2,0.9-0.1,1.4c0.9,2.3-0.1,4.6-0.3,6.9c-0.2,2.2-0.2,4.4-0.1,6.6
	c0.3,5.5,0,11.1,0,16.6c0.1,3.2,0,6.4-0.5,9.5c-0.2,1.9-0.3,3.9-0.1,5.9c0,2.1,0.2,4.3-0.7,6.4c-0.1,0.4-0.1,0.8-0.1,1.2
	c0.4,3.6-2.8,5.9-6,6.5c-0.8,0.1-1.6-0.1-2.2-0.7c-1.4-1.1-2.5-2.4-3.4-3.9c-1.5-2.9-2.3-6.1-3.4-9.2c-0.7-1.4-1-3-1.1-4.6
	c0.1-1.4-0.9-2.8-0.8-4.3c0.1-1-0.6-1.8-0.9-2.7c-1.4-4.9-2.8-9.8-4-14.8c-0.9-3.7-1.5-7.5-2.6-11.3c-0.4-1.3-0.8-2.5-1.4-3.7
	c-1.6-3.7-2.2-7.6-3.3-11.4c-0.1-0.6-0.4-1.1,0-1.6c0.6-0.7,1-1.2-0.4-1c-0.4,0-0.4-0.6-0.5-1c-0.6-2.5-1.1-5.1-1.9-7.6
	c-1.9-5.6-3-11.5-4.9-17.2c-1.1-3.2-2.1-6.5-3.2-9.7c-1.1-3-2.1-6.1-2.9-9.3c-0.5-1.9-1.8-3.5-2.4-5.4c-1-3.2-3.1-5.9-3.5-9.3
	c0-0.4-0.2-0.8-0.5-1c-0.9-0.7-1.5-1.7-1.6-2.9c-0.2-1.1-0.7-2.1-1.3-3c-1.6-2.1-2.3-4.6-3.6-6.9c-1.8-3.1-4-6.1-6.5-8.7
	c-2.2-2.4-4.5-4.7-7-6.8c-2-1.6-4.3-3-6.6-4c-1.9-0.7-3.7-2-5-3.6c-0.6-0.6-0.7-1.4-0.3-2.1c0.4-1,1.1-2,1.8-2.8
	c1.5-1.2,2.6-3,4.6-3.6c3.5-1.2,6.8-3.1,10.8-1.2c1.4,0.7,3.5,0.5,5.1,1.1c2.2,0.8,4.1,2,5.8,3.6c3.5,3.4,6.5,7.3,8.9,11.5
	c2.6,4.2,5,8.5,7.1,13c1.8,4.2,4,8.4,5.4,12.8c0.4,1,0.8,1.9,1.3,2.8c1.1,2.5,2.1,5.2,3,7.8c1.1,3.3,2.6,6.5,3.7,9.8
	c1.2,3.6,2.6,7.1,3.6,10.8c1,3.8,2.5,7.5,3.5,11.3s2.3,7.6,3.4,11.5c0,0.1,0.2,0.1,0.7,0.4c0.2-2.1,0.4-4.1,0.6-6.1
	c0.5-5.1,0.8-10.1,1.4-15.2c0.8-5.7,1-11.4,2.4-17c1.6-6.4,2.6-12.9,5.3-19c1.5-3.4,2.5-7,4.1-10.4c2.8-5.8,6.1-11.4,11.1-15.7
	c1.9-1.8,3.9-3.4,6.1-5c6.8-4.7,14.7-7.6,22.9-8.3c3.5-0.4,7-0.2,10.4,0.8c4,0.9,7.6,2.8,10.7,5.6c1.7,1.6,3.5,3.2,5.1,5
	c1.6,2,3,4.3,4.1,6.7c1.5,3.1,2.1,6.5,2.8,9.8c1.1,5.6,1.8,11.2,2.6,16.9c0.4,2.9,0.6,5.8,0.8,8.8c0.3,4.3,0.7,8.6,0.8,12.9
	c0.1,3,0.5,5.8,0.8,8.7c0.6,0.1,0.8-0.3,1-0.5c2.5-3,5.1-6,7.3-9.2c1.9-2.7,3.6-5.6,5.6-8.3c3.1-4.4,5.8-8.9,8.9-13.2
	c1.7-2.3,2.9-5,3.3-7.8c0.7-5.3,0.9-10.7,1.7-16.1c0.9-6,1.8-12.1,2.7-18.2c0.8-5.2,1.3-10.4,2.3-15.6c0.9-4.5,1.5-9.1,2.6-13.6
	c1.1-4.2,2.1-8.3,2.8-12.6c0.8-5,2.1-10,4-14.7c1.4-3.5,2.5-7,4.8-10.1c2-2.7,4.1-5.5,7-7.3c3.5-2.4,7.8-3.5,12-3.1
	c1.6,0.1,3.1,0.4,4.6,0.9c1.5,0.6,3,1.4,4.2,2.4c2,1.7,3.8,3.7,5.7,5.7c0.9,1,1.6,2.2,2.2,3.4c1.8,3.4,3.5,6.8,4,10.6
	c0.8,5.9,0.7,11.9-0.3,17.8c-0.9,5.4-2.3,10.8-4.1,16c-1.4,3.9-3,7.7-4.8,11.3c-2.2,4.4-4.2,8.8-6.5,13.1c-3.1,5.8-6.6,11.4-9.9,17
	c-4.5,7.7-9.5,15.1-14.3,22.6c-1.1,1.8-2.2,3.7-3.2,5.6c-0.4,0.7-0.6,1.5-0.5,2.3c0.5,4.3,0.3,8.6,0.4,12.9c0.1,2.9,0.6,5.9,0.5,8.8
	c-0.1,4.7,0,9.4,0.1,14.1c0.1,7.3,0.8,14.5,1.6,21.7c0.3,3.2,0.6,6.3,0.8,9.5c0.4,4.7,1,9.3,1.9,13.9c1,5.2,2,10.4,3.1,15.6
	c0.6,2.7,1.6,5.4,2.9,7.8c1.1,2,2,4.1,3.1,6.2c0.9,1.5,2,2.8,3.4,3.9c1.7,1.5,3.8,1.2,5.4-0.3c2.1-1.9,3.2-4.4,4.2-6.9
	c2.3-5.3,4.3-10.8,5.9-16.4c1.1-3.9,2.6-7.6,4.2-11.4c0.8-1.9,1.5-3.8,2-5.8c0.4-1.4,0.9-2.7,1.5-4.1c0.8-2.1,1.6-4.1,2.4-6.2
	c1.6-4.2,3.5-8.4,5.2-12.6c1.4-3.5,2.7-7,4.3-10.3c3.8-8.1,7.4-16.4,11.4-24.4c2.2-4.4,4.2-8.9,6.5-13.2c3.8-7.1,7.5-14.2,11.4-21.2
	c1.4-2.4,2.1-5.2,4.1-7.2c0.6-0.6,0.6-1.4,0.9-2.1c1.8-3.8,4.3-7.2,6.3-10.9c0.6-0.8,0.5-1.9-0.2-2.6c-3.3-4.2-5.9-8.9-6.4-14.3
	c-0.8-8,1-15.2,6.8-21.1c1.1-1,2.4-1.9,3.7-2.7c0.6-0.3,1.2-0.7,1.7-1.3c-5-3.9-7-9-7.3-15.1s1.8-11.1,5.2-15.8
	c1.6-2.3,3.7-4.2,6.1-5.5c0.6-0.4,1.2-0.8,1.7-1.3c1.2-1.1,2.9-1.4,4.4-1.7c3-0.8,5.9-1.6,9.1-1.1c3.6,0.6,7,2.1,9.8,4.4
	c1.8,1.4,2.3,1.4,3.6-0.5c1-1.5,2.1-2.8,3.4-4c1.9-1.5,4-2.8,6.2-3.7c2.8-1.4,5.6-1.6,8.5-1.8c1.5,0.1,3,0.2,4.4,0.5
	c3.7,0.3,7.2,1.6,10.2,3.7c2,1.4,3.6,3.2,4.7,5.3c2.5,4.7,2.7,9.7,2.8,14.7c0.1,3.2-0.6,6.3-2,9.2c-0.2,0.4-0.3,0.8-0.1,1.2
	c4.6,0.2,9,1.6,12.8,4.2c1.9,1.3,3.4,3,4.5,5c0.5,1,1.1,1.9,1.8,2.8c0.5,0.6,0.8,1.4,1,2.1c1.2,5,1.2,10.3-0.1,15.3
	c0,0.1,0,0.2-0.1,0.2c-2.5,4.1-4.3,8.8-8.7,11.4c-0.4,0.2-0.7,0.4-1,0.7c-1.6,1.8-3.9,1.6-5.9,2c-1.3,0.2-2.7,0.1-4,0.2
	c-2.6,0.3-4.8-1.1-7.1-1.6c-0.6-0.2-1.2-0.3-1.8-0.1c0.9,3.7,0.2,7.4-0.2,11.1c-0.2,1.1-0.5,2.2-1,3.2c-1.4,3.4-3,6.7-5.8,9.2
	c-1.9,1.7-3.5,3.7-5.6,5.1c-0.4,0.2-0.8,0.7-1.2,0.8c-3.4,0.8-6.7,1.9-10.2,1c-1.3-0.3-2.7,0.3-4-0.4c-0.5-0.2-1-0.2-1.3-0.8
	s-1-0.7-1.6-0.9c-1.6-0.6-3.1-1.6-4.2-3c-3.9-4.3-5.2-9.7-6.9-15.1c-0.1-0.5-0.3-1-0.7-1.4c-0.9,0.5-1.6,1.4-2,2.4
	c-0.9,2.4-2.5,4.4-3.9,6.5c-1,1.6-1.7,3.4-2.6,5.1c-2.3,4.3-4.8,8.4-7.5,12.4c-1.9,2.6-3.6,5.3-5,8.2c-1.5,3.3-3.5,6.2-5.1,9.3
	c-1.3,2.7-2.5,5.4-3.9,8.1c-1.2,2.3-2.6,4.6-3.9,6.9c-1.5,2.7-2.6,5.6-3.8,8.5c-0.5,1.2-1.1,2.5-1.7,3.7c-1.3,2.5-2.1,5.1-3.5,7.5
	c-0.4,1-1,2-1.8,2.8c-0.4,0.4-0.7,0.9-0.8,1.4c-1,4.1-2.8,7.9-4.5,11.7c-1.9,4.3-3.7,8.6-5.5,12.9c-1.1,2.4-2.1,5-3,7.5
	s-2.1,5-3.1,7.5c-1.1,2.7-2,5.5-3.1,8.2c-1.2,3-2.2,6.1-3.3,9.2c-1.8,5-3.9,9.9-5.3,15c-0.9,3.2-2.3,6.3-3.4,9.4
	c-0.8,2.2-1.5,4.5-2.5,6.7c-1.3,2.6-3,5.1-5,7.2c-0.2,0.2-0.4,0.5-0.7,0.6c-1.6,0.6-2.7,1.8-3.9,3c-2,2-4.6,2.4-7.3,2.3
	c-3.4-0.1-6.4-1.5-9.2-3.1c-3.7-2.2-6.8-5.2-9.2-8.8c-2.5-3.4-4.7-7-6.7-10.7c-1.1-2.4-2.1-5-2.8-7.6c-1.1-3.5-2-7-3-10.5
	c-0.7-2.5-1.4-5.1-2-7.6c-1.6-7-2.8-14-3.5-21.2c-0.9-7.7-1.6-15.4-2.1-23.1c-0.5-7.2-0.7-14.5-1.1-21.7c-0.2-1.5-0.2-3-0.1-4.5
	C186.8,152.5,186.6,151.7,186.1,151z M122.3,257c-0.2,5.2,0.5,9,2.2,12.6c1.1,2.4,2.6,4.8,5.8,4.9c0.4,0.1,0.8,0.1,1.2,0.2
	c2.9,0.6,5.9-0.7,7.4-3.2c1.4-2.5,2.4-5.2,2.9-8c0.4-2.4,0.6-4.9,0.8-7.3c0.5-5.2,1.2-10.4,1-15.6c-0.1-0.8-0.2-1.6-0.2-2.4
	c0.4-5.3-0.3-10.6,0.4-15.9c0.6-4.3,0.9-8.7,0.9-13c0-0.5,0.2-1-0.4-1.2s-0.8,0.3-0.9,0.6c-0.9,2.3-3.1,3.8-4.1,6.1
	c-0.4,0.8-0.9,1.5-1.5,2.1c-3.7,4.6-6.1,9.8-8.7,15c-1.8,3.6-2.8,7.6-4.1,11.4C123.4,247.9,122.5,252.4,122.3,257L122.3,257z
	 M206,90l0.5,0.2l3.2-3.8c0.8-1.1,1.5-2.2,2.1-3.4c4.3-6.9,8-14.1,11-21.6c2.1-5.3,3.7-10.7,4.8-16.2c1.2-5.9,1.8-11.9,0.4-17.9
	c-0.3-1.5-1-2.8-1.9-4c-1.1-1.7-3.4-2.1-5-1c-0.2,0.1-0.4,0.3-0.6,0.5c-1.2,1-2.2,2.3-2.9,3.8c-1.4,3.1-2.5,6.3-3.1,9.6
	c-0.9,4.9-2.2,9.8-3,14.7c-0.7,4.7-1.6,9.3-2.3,13.9c-0.8,5-1.1,10.1-1.8,15.2C206.9,83.2,206.5,86.6,206,90z M348.3,51.5
	c0.1-3.3-1.4-6.4-4-8.4c-1.3-0.8-2.8-1.5-4.3-2c-0.4-0.1-0.8-0.1-1.2-0.1c-5.4-0.1-10.2,4.5-11.7,9.2c-0.2,0.8-0.4,1.5-0.7,2.3
	c-1.1,2.6-0.4,4.9,1.2,7.1c2.5,3.4,6.2,4.1,10,3.7c2.6-0.2,5.1-1.4,7-3.2C347,57.5,348.7,54.5,348.3,51.5L348.3,51.5z"/>
</svg>
