<svg id="Layer_1" data-name="Layer 1" xmlns="http://www.w3.org/2000/svg" viewBox="0 0 522.77 361.81"><defs><style>.cls-1{fill:#fff;}.cls-2{fill:#291963;}</style></defs><path class="cls-1" d="M-38.84-27.64l-.8.8C-39.8-27.53-39.53-27.8-38.84-27.64Z" transform="translate(39.68 27.68)"/><path class="cls-1" d="M348.5-26.84l-.8-.8C348.39-27.8,348.66-27.53,348.5-26.84Z" transform="translate(39.68 27.68)"/><path class="cls-1" d="M78.66,324.55l.8.8C78.77,325.5,78.51,325.24,78.66,324.55Z" transform="translate(39.68 27.68)"/><path class="cls-2" d="M121.94,121c-4-1.15-8-2.29-11.93-3.4a104.92,104.92,0,0,1-31.3-15C66,93.8,68.63,77.05,80,70.61c8.63-4.9,18-7.64,27.59-9.87,16.68-3.88,33.62-4.26,50.63-3.23a207.18,207.18,0,0,1,34.08,4.63c4.5,1,6.07,0,7.55-4.56,4.66-14.34,11.93-27.08,23.37-37.1,8.66-7.59,18.2-13.69,29.75-16,15.1-3,28.85,3.26,35,16.12,3.63,7.54,3.54,15.64,3,23.73a36.61,36.61,0,0,1-2.85,13.07c-.48,1-.68,2.12.31,3s2.15.56,3.23,0A209.34,209.34,0,0,1,321.37,48a274.88,274.88,0,0,1,99.14-14.67c13.31.43,26.29,2.72,38.51,8.3a39.76,39.76,0,0,1,10.86,6.91c7.23,6.77,8.86,15.15,4.4,24-4,7.87-9.95,14.09-16.83,19.47-11.58,9.07-24.87,15-38.37,20.47a260.55,260.55,0,0,1-83.82,18.74c-1.41.07-2.82.23-4.22.4-.78.09-1.78-.08-1.91,1.12a2,2,0,0,0,1.34,2.18c2.57,1.17,5.17,2.26,7.73,3.44q39.3,18,78.6,36.12,29.44,13.6,58.78,27.46c7.7,3.63,9.73,11.8,4.89,18.79-2.91,4.19-7.66,5.8-13.28,4.5-4.41-1-8.33-3.25-12.39-5.11q-18.42-8.46-36.77-17a3,3,0,0,0-3.55.38q-50.82,39.18-101.72,78.26Q282,305.36,251.15,329a41.42,41.42,0,0,1-5.87,3.75,10.74,10.74,0,0,1-12-.9,47,47,0,0,1-5.72-4.81l-47.33-46.6c-1.24-1.22-2.53-2.41-3.78-3.62-3.5-3.41-5.25-3.59-9.38-.78-7.33,5-14.63,10.06-22,15.08q-27.75,19-55.51,37.94c-3.65,2.49-7.35,4.91-12,4.9A12,12,0,0,1,66,325.66a11.42,11.42,0,0,1,3.46-13.31c3.56-2.84,7.41-5.33,11.18-7.9q42.5-28.93,85-57.85c6.67-4.54,11.84-4.32,17.72,1.32,9.55,9.16,18.89,18.53,28.29,27.85,8.1,8,16.15,16.1,24.23,24.14,4.08,4.06,6.22,4.18,10.77.68l114-87.62q12.74-9.79,25.43-19.65c3.27-2.54,3.18-3.48-.63-5.24-20.49-9.49-41-18.88-61.5-28.38-6.67-3.1-13.48-5.87-20-9.34-1.2-.64-2.41-1.23-3.73-.26s-1.18,2.35-.91,3.64A94.2,94.2,0,0,1,300.74,184c-1.68,14.66-6.12,28.33-16.17,39.51-12.41,13.81-30.23,17.42-47.32,9.65-13.92-6.31-24.2-16.8-32.43-29.45a115.39,115.39,0,0,1-10.95-22.34c-.41-1.09-.88-2.15-1.34-3.22-.69-1.57-1.72-1.72-2.89-.56-1.6,1.58-3.15,3.21-4.67,4.86-20.46,22.36-43.37,41.76-69.63,57C97.17,250.05,78.27,259,57.8,264.14c-9.51,2.41-19.18,3.22-28.94,1.34-14-2.71-21.07-12.81-18.62-26.91,2.38-13.68,8.81-25.52,16.9-36.55,23.62-32.24,54-56.75,88.35-76.6,2.08-1.2,4.08-2.54,6.11-3.83C121.71,121.52,121.75,121.33,121.94,121Zm49.41,13.62c.58,0,1.16,0,1.74,0s1.17,0,1.75-.1c19.78-2.06,37.8-8.74,53.67-20.83,5.21-4,10.62-7.81,14.27-13.43a11.18,11.18,0,0,0-6.2-16.57c-3.66-1.1-7.34-.87-11.11-.55-21.51,1.82-40.55,9.68-57.44,23-5,3.91-9.36,8.29-11.88,14.18-2.39,5.58-.49,10,5.1,12.34A30.84,30.84,0,0,0,171.35,134.61Z" transform="translate(39.68 27.68)"/></svg>