<svg id="Layer_1" data-name="Layer 1" xmlns="http://www.w3.org/2000/svg" viewBox="0 0 509.91 298.55"><path d="M309.41,305.78c-2.66,1.9-4.07,4.63-6,6.9-2.74,3.21-5.17,6.66-7.71,10s-5.28,6.79-7.64,10.38c-.89,1.35-.75,2.94-.85,4.42-.33,4.75-.65,9.5-.55,14.27.08,3.48.33,7,.2,10.45-.08,2.26.14,4.54-.51,6.85a14.24,14.24,0,0,0-.18,4.45,63.33,63.33,0,0,1-.13,7.16c-.43,8.43-.58,16.87-1.25,25.29a116.37,116.37,0,0,1-1.63,14.45c-1.15,5.59-2.37,11.28-5.65,16.09-3.63,5.32-8.08,9.95-14.42,12a28.3,28.3,0,0,1-10.86,1.19c-5.41-.44-9.51-3.24-13.25-6.82-6.6-6.3-9.74-14.27-10.72-23.12-.53-4.83.2-9.7.59-14.55.42-5.21,1.84-10.21,3.22-15.18a55.17,55.17,0,0,1,3.74-10.57c1-2,1.24-4.28,2.4-6.22,2.32-3.88,4.64-7.76,6.92-11.66,2.17-3.72,4-7.66,6.5-11.16s4.27-7.8,7.55-10.89c.77-.73.56-1.89,1.37-2.72,2-2,3.7-4.3,5.61-6.4a3.66,3.66,0,0,0,1.08-3.24c-.87-5.75-.88-11.57-1.42-17.35-.26-2.7-.32-5.42-.62-8.11-.14-1.17.65-2.53-.65-3.53-.16-.13,0-.75.12-1.13s.41-.66.33-.84c-1-2-.27-4.21-1-6.23a6.06,6.06,0,0,1-.13-3.3c.06-.3.36-.62.11-.89-1.14-1.28-.7-2.83-.73-4.28a104,104,0,0,0-2.06-17.7,20.27,20.27,0,0,0-3.65-8.75c-1.21-1.56-2.11-3.32-3.75-4.6a13.08,13.08,0,0,0-10.23-2.87,21.66,21.66,0,0,0-5.36,1.11c-1.31.51-2.68.91-3.56,2.2a4.14,4.14,0,0,1-1.53,1.11c-3,1.54-5.1,4-7.09,6.57a49.35,49.35,0,0,0-5.43,9c-2.78,5.74-4.33,11.84-5.88,17.95q-2.25,8.89-4.41,17.81a28.57,28.57,0,0,0-.57,3.75,28.1,28.1,0,0,1-.91,4.63c-.55,2-.41,4.11-.74,6.16-.28,1.7,0,3.47-.59,5.17a5.16,5.16,0,0,0-.05,2.38,39.22,39.22,0,0,1-.32,10.71,4.58,4.58,0,0,0,0,1.17,14.39,14.39,0,0,1-.6,7.44,2.17,2.17,0,0,0-.06,1.4c.85,2.34-.1,4.63-.33,6.88a41.15,41.15,0,0,0-.1,6.65c.32,5.53,0,11.06,0,16.58a49.8,49.8,0,0,1-.51,9.49,32.6,32.6,0,0,0-.12,5.86c0,2.15.16,4.29-.69,6.35a2.42,2.42,0,0,0-.06,1.17c.41,3.59-2.77,5.9-6,6.5a2.5,2.5,0,0,1-2.21-.7A15,15,0,0,1,193,401c-1.53-2.92-2.32-6.1-3.37-9.18a11.12,11.12,0,0,1-1.07-4.57c.1-1.35-.9-2.76-.81-4.28.06-1-.6-1.8-.86-2.72-1.37-4.93-2.81-9.84-4-14.84-.87-3.74-1.51-7.55-2.57-11.26a30.31,30.31,0,0,0-1.36-3.72c-1.57-3.69-2.23-7.59-3.26-11.4-.15-.57-.36-1.11,0-1.57.57-.71,1-1.17-.45-1-.42.05-.41-.58-.5-1-.62-2.54-1.1-5.14-1.93-7.6-1.91-5.65-3-11.53-4.85-17.17-1.07-3.23-2.12-6.47-3.25-9.69-1.06-3-2.13-6.13-2.92-9.28-.49-1.93-1.83-3.51-2.39-5.4-1-3.17-3.1-5.9-3.48-9.28a1.34,1.34,0,0,0-.51-1.05,4.33,4.33,0,0,1-1.59-2.87,7.86,7.86,0,0,0-1.3-2.95c-1.55-2.13-2.34-4.65-3.61-6.93a47.67,47.67,0,0,0-6.5-8.72,68.54,68.54,0,0,0-7-6.82,30.3,30.3,0,0,0-6.65-4,12.14,12.14,0,0,1-5-3.58,1.78,1.78,0,0,1-.3-2.15,8.38,8.38,0,0,1,1.85-2.76c1.49-1.25,2.56-3,4.57-3.63,3.52-1.18,6.79-3.1,10.81-1.2,1.45.68,3.48.46,5.14,1.14a17.68,17.68,0,0,1,5.83,3.56,57.5,57.5,0,0,1,8.94,11.48,113,113,0,0,1,7.06,13c1.84,4.22,4,8.35,5.35,12.77a25.65,25.65,0,0,0,1.27,2.84c1.15,2.55,2.06,5.18,3,7.82,1.15,3.3,2.61,6.49,3.7,9.83,1.19,3.6,2.65,7.12,3.64,10.77,1,3.81,2.52,7.46,3.54,11.27s2.27,7.64,3.43,11.46c0,.1.25.15.66.37.2-2.1.4-4.09.58-6.08.47-5.06.76-10.14,1.44-15.16.77-5.68,1-11.43,2.42-17,1.62-6.37,2.55-12.91,5.28-19,1.52-3.39,2.53-7.05,4.15-10.42,2.8-5.83,6.1-11.35,11.09-15.69a74.66,74.66,0,0,1,6.05-5A48.67,48.67,0,0,1,246.2,230a27.09,27.09,0,0,1,10.41.75,24.59,24.59,0,0,1,10.68,5.55c1.71,1.65,3.5,3.23,5.07,5a30.8,30.8,0,0,1,4.06,6.69c1.55,3.08,2.11,6.47,2.78,9.83,1.11,5.6,1.84,11.25,2.58,16.9.38,2.91.57,5.84.79,8.77.32,4.29.72,8.57.83,12.87.08,2.95.45,5.84.79,8.74.56.13.75-.27,1-.55,2.45-3.05,5.06-6,7.26-9.2,1.88-2.74,3.65-5.56,5.56-8.28,3.06-4.36,5.76-8.94,8.89-13.25a17.27,17.27,0,0,0,3.29-7.82c.74-5.34.85-10.74,1.69-16.07.94-6,1.76-12.12,2.68-18.18.79-5.2,1.34-10.45,2.31-15.61.86-4.53,1.46-9.1,2.6-13.59,1.06-4.16,2.12-8.34,2.78-12.58a67.67,67.67,0,0,1,4-14.68c1.37-3.47,2.55-7,4.82-10.06,2-2.74,4.15-5.48,7.05-7.28a18.81,18.81,0,0,1,12-3.14,19.64,19.64,0,0,1,4.6.91,14.12,14.12,0,0,1,4.22,2.44c2,1.73,3.83,3.74,5.7,5.66a13.53,13.53,0,0,1,2.16,3.4c1.79,3.37,3.48,6.77,4,10.61a58.58,58.58,0,0,1-.31,17.83,102.11,102.11,0,0,1-4.07,16A94.48,94.48,0,0,1,361.59,223c-2.2,4.38-4.25,8.81-6.55,13.15-3.07,5.82-6.58,11.36-9.89,17-4.49,7.73-9.49,15.12-14.31,22.63-1.15,1.8-2.17,3.71-3.17,5.61a3.78,3.78,0,0,0-.5,2.3c.52,4.29.27,8.6.37,12.9.07,2.94.57,5.85.53,8.82-.06,4.69,0,9.4.14,14.09.15,7.26.8,14.48,1.56,21.69.33,3.16.57,6.34.79,9.52a117.92,117.92,0,0,0,1.91,13.85c1,5.2,2,10.39,3.11,15.56a31.71,31.71,0,0,0,2.89,7.82c1.06,2,2,4.15,3.1,6.19A13.39,13.39,0,0,0,345,398c1.66,1.46,3.75,1.2,5.42-.31,2.07-1.88,3.19-4.42,4.25-6.86a142.42,142.42,0,0,0,5.89-16.37c1.14-3.87,2.65-7.65,4.17-11.41a40.39,40.39,0,0,0,2-5.79,38,38,0,0,1,1.46-4.07c.75-2.08,1.58-4.14,2.37-6.21,1.61-4.24,3.47-8.39,5.19-12.59,1.41-3.46,2.73-7,4.31-10.34,3.8-8.14,7.42-16.37,11.43-24.4,2.19-4.38,4.16-8.87,6.5-13.17,3.84-7.06,7.45-14.24,11.39-21.25,1.35-2.41,2.11-5.18,4.14-7.2.59-.59.56-1.44.9-2.14,1.81-3.78,4.26-7.19,6.27-10.85a2,2,0,0,0-.22-2.55c-3.31-4.25-5.87-8.91-6.41-14.34-.8-8,1-15.22,6.79-21.09a24.08,24.08,0,0,1,3.66-2.68,6,6,0,0,0,1.67-1.26c-5-3.87-7-9-7.26-15.11s1.84-11.1,5.23-15.77a17.72,17.72,0,0,1,6.09-5.54,8.15,8.15,0,0,0,1.69-1.31c1.23-1.15,2.89-1.35,4.35-1.74,3-.78,5.92-1.58,9.12-1.09a20.7,20.7,0,0,1,9.83,4.37c1.78,1.39,2.31,1.35,3.65-.49a22.68,22.68,0,0,1,3.37-4,28.17,28.17,0,0,1,6.22-3.72c2.79-1.39,5.58-1.63,8.52-1.82a28.38,28.38,0,0,1,4.41.52,20.18,20.18,0,0,1,10.18,3.73,15.51,15.51,0,0,1,4.7,5.31c2.5,4.67,2.67,9.68,2.8,14.73a20.59,20.59,0,0,1-2,9.23,1.36,1.36,0,0,0-.12,1.19,24.79,24.79,0,0,1,12.83,4.18,15,15,0,0,1,4.49,5,26.6,26.6,0,0,0,1.75,2.83,5.51,5.51,0,0,1,1,2.14,31.89,31.89,0,0,1-.14,15.32.78.78,0,0,1-.07.23c-2.53,4.1-4.28,8.78-8.72,11.42a4.27,4.27,0,0,0-1,.71c-1.59,1.81-3.88,1.64-5.91,2-1.3.19-2.71.07-4.05.21-2.57.26-4.76-1.07-7.12-1.65a3,3,0,0,0-1.77-.11c.88,3.74.2,7.4-.22,11.08a11.49,11.49,0,0,1-1,3.2c-1.43,3.37-3,6.66-5.82,9.17-1.9,1.67-3.46,3.72-5.65,5.09-.4.25-.75.68-1.18.79-3.35.83-6.69,1.93-10.21,1-1.32-.33-2.68.29-4-.38-.47-.24-1.05-.23-1.29-.83s-.95-.74-1.56-.92a9.37,9.37,0,0,1-4.18-3c-3.9-4.3-5.24-9.74-6.87-15.06a2.45,2.45,0,0,0-.69-1.42,4.69,4.69,0,0,0-2,2.38c-.93,2.42-2.55,4.38-3.91,6.52-1,1.61-1.67,3.4-2.6,5.06A140.47,140.47,0,0,1,429.62,269a50.87,50.87,0,0,0-4.95,8.21c-1.47,3.27-3.55,6.16-5.11,9.31-1.33,2.67-2.54,5.43-3.92,8.1-1.21,2.34-2.61,4.58-3.85,6.89-1.46,2.72-2.59,5.62-3.81,8.46-.54,1.25-1.09,2.48-1.72,3.69-1.28,2.45-2.08,5.12-3.45,7.54A9.08,9.08,0,0,1,401,324a2.47,2.47,0,0,0-.81,1.43c-1,4.09-2.84,7.87-4.5,11.7-1.87,4.31-3.66,8.65-5.55,12.94-1.07,2.44-2.1,5-3,7.48s-2.08,5-3.11,7.49c-1.12,2.7-2,5.53-3.11,8.22-1.24,3-2.21,6.13-3.31,9.17-1.8,5-3.85,9.9-5.3,15-.91,3.21-2.27,6.27-3.39,9.41-.8,2.25-1.48,4.53-2.47,6.71a27.33,27.33,0,0,1-5,7.17c-.21.24-.42.55-.69.65-1.64.57-2.69,1.84-3.86,3-2,2-4.64,2.38-7.3,2.32-3.37-.08-6.35-1.48-9.22-3.08a28.76,28.76,0,0,1-9.2-8.81,87.25,87.25,0,0,1-6.69-10.73,46.15,46.15,0,0,1-2.77-7.56c-1.09-3.46-2-7-3-10.46q-1.05-3.78-2-7.59a159.25,159.25,0,0,1-3.46-21.16c-.86-7.67-1.6-15.36-2.09-23.07-.46-7.24-.67-14.49-1.06-21.74A29.54,29.54,0,0,1,310,308,3.14,3.14,0,0,0,309.41,305.78Zm-63.83,106c-.21,5.17.46,9.05,2.16,12.65,1.15,2.42,2.59,4.77,5.79,4.89a8.14,8.14,0,0,1,1.17.25,6.94,6.94,0,0,0,7.38-3.21,29,29,0,0,0,2.94-8,69.82,69.82,0,0,0,.78-7.33c.5-5.18,1.25-10.35.95-15.58a19.06,19.06,0,0,1-.18-2.38c.38-5.28-.31-10.57.44-15.86a101.13,101.13,0,0,0,.88-13c0-.46.18-1-.41-1.2s-.77.29-.9.62c-.89,2.33-3.08,3.78-4.06,6.06a9.82,9.82,0,0,1-1.54,2.08c-3.66,4.56-6.11,9.82-8.67,15-1.8,3.64-2.79,7.6-4.13,11.42A55.16,55.16,0,0,0,245.58,411.82Zm83.77-167,.46.19,3.19-3.79a27.08,27.08,0,0,0,2.09-3.41,143,143,0,0,0,11-21.58,92.93,92.93,0,0,0,4.79-16.25c1.24-5.94,1.79-11.9.41-17.94a10.69,10.69,0,0,0-1.9-4,3.63,3.63,0,0,0-5.64-.53,11.22,11.22,0,0,0-2.89,3.77,41.32,41.32,0,0,0-3.12,9.64c-.93,4.92-2.25,9.77-3,14.73-.68,4.66-1.63,9.26-2.31,13.91-.75,5-1.09,10.12-1.79,15.16C330.19,238,329.78,241.4,329.35,244.78Zm142.29-38.54a9.92,9.92,0,0,0-4-8.41,22.31,22.31,0,0,0-4.27-2,3.22,3.22,0,0,0-1.17-.07c-5.4-.12-10.25,4.46-11.74,9.21-.23.75-.4,1.51-.71,2.26-1.07,2.57-.35,4.94,1.22,7.07,2.51,3.39,6.2,4.13,10,3.69a11.53,11.53,0,0,0,7-3.23C470.35,212.24,472,209.23,471.64,206.24Z" transform="translate(-123.32 -154.75)"/><path d="M486.72,377.59A68.78,68.78,0,0,1,484,391.47a34.67,34.67,0,0,1-2.55,7.36,1.69,1.69,0,0,0-.24.67c0,3.79-2.09,6.87-3.5,10.18a8.29,8.29,0,0,1-.85,1.43c-.83,1.22-1.74,1.55-2.8,1.06-1.68-.78-2-1.52-1.44-3.23,2.21-6.41,4.14-12.91,6.52-19.26a41.56,41.56,0,0,0,2.12-9.3,1.25,1.25,0,0,0-.18-.89c-.34-.35-.72-.05-1.05.17a22.56,22.56,0,0,0-4.07,4,214.4,214.4,0,0,0-14.11,18.11,81.23,81.23,0,0,0-7.57,14.35c-.32.72-.43,1.69-1.43,1.69a4.78,4.78,0,0,1-3.4-.85c-.64-.58-.34-1.53-.17-2.3a70.05,70.05,0,0,1,2.22-9.31c1.32-3.62,1.87-7.42,2.83-11.12a101.87,101.87,0,0,1,3.1-10.82,7.58,7.58,0,0,1,1.12-2.35c1.08-1.29.92-3,1.34-4.53a124.08,124.08,0,0,1,4.5-13.14c.42-1,.74-2.1,1.1-3.16A72.18,72.18,0,0,1,470.65,348l.25-.41c1-1.44,1.75-1.88,2.64-1.46a2.62,2.62,0,0,1,1.19,3.1c-1.37,2.88-1.76,6.08-3.2,9a18.89,18.89,0,0,0-2,5.14c-.66,3.78-2.19,7.33-3.45,10.95s-2.9,6.9-3.47,10.66a25,25,0,0,1-1.91,5.66c-.19.46-.45.87-.08,1.31.51.61,1,.13,1.48-.08a7.66,7.66,0,0,0,3.25-3.32,11,11,0,0,1,2.37-3,3.83,3.83,0,0,0,.95-1.06c1.78-3,4.44-5.22,6.84-7.63a14.76,14.76,0,0,1,5.84-4c3-1,5.15.45,5.29,3.59C486.67,376.92,486.71,377.4,486.72,377.59Z" transform="translate(-123.32 -154.75)"/><path d="M416.67,391.87c-2.72,2.05-5.42,3.43-7.62,5.53a2.4,2.4,0,0,1-3.24-.2,2,2,0,0,1,0-3c.15-.18.33-.35.47-.54,1-1.38,3.24-1.3,3.86-2.85.7-1.73,2.28-2.12,3.49-3.05a32.63,32.63,0,0,1,4.19-2.72,5.88,5.88,0,0,0,2.78-3.37c3.07-8.05,5.88-16.21,9.65-24a62,62,0,0,0,2.67-6.36c.37-1.07,1.69-1.64,1.39-3.07-.09-.46.65-.87,1.24-.95,1.38-.19,3.27,2,2.78,3.3-1.79,4.77-3.53,9.56-5.75,14.17-1.68,3.51-2.95,7.21-4.39,10.84-.43,1.08-.82,2.18-1.3,3.47a8.3,8.3,0,0,0,3.58-1.6,35.8,35.8,0,0,1,5.65-3c2.27-1.13,4.18.21,4.06,2.71-.05,1-.88,1.51-1.65,1.9-1.57.78-3.21,1.42-4.8,2.17a21.15,21.15,0,0,0-5.35,3.07,20.28,20.28,0,0,1-3.49,2.09,2.77,2.77,0,0,0-1.6,2c-.7,4.12-2.41,7.94-3.57,11.91a12.37,12.37,0,0,0-.5,1.85c-.54,4.13-2,8-2.84,12.11a6.79,6.79,0,0,0-.06,4c.37.93.92,1.06,1.6.31a29.67,29.67,0,0,0,2.52-3.19c2.28-3.37,4.39-6.86,6.78-10.13a122.3,122.3,0,0,1,8.3-10.8,63.16,63.16,0,0,0,4.58-6.11c1.26-1.75,1.79-1.87,3.07-1,1.78,1.2,2.11,2.08,1.11,3.74a37.86,37.86,0,0,1-3,4.31c-2.14,2.67-4.46,5.21-6.55,7.91s-4,5.73-6.14,8.46c-1,1.31-1.72,2.82-2.63,4.19-1.5,2.26-3.42,4.24-4.72,6.57-2.18,3.91-7.63,2.46-9.11-.88a11.14,11.14,0,0,1-.91-6.53c.58-3.37,1.2-6.74,1.84-10.1s1.79-6.43,2.76-9.63A17.66,17.66,0,0,0,416.67,391.87Z" transform="translate(-123.32 -154.75)"/><path d="M534.72,308.89c2.45-2.16,4.21-4.73,6.36-7a13.82,13.82,0,0,1,3.28-2.71,37.32,37.32,0,0,0,3.57-2.36,5.52,5.52,0,0,1,5.15-1,4.75,4.75,0,0,1,2.79,4.87,57.06,57.06,0,0,1-3.31,17.1c-1.44,3.82-2.07,7.85-3.06,11.78-.55,2.17-1.19,4.31-1.8,6.46a5.65,5.65,0,0,1-.37.88c-.44,1-.92,1.94-2.23,1.78a3.84,3.84,0,0,1-2.3-2.81,6.69,6.69,0,0,1,.27-1.89c1.38-4.76,2.57-9.56,3.68-14.39.75-3.26,2.2-6.32,3-9.58.67-2.72.39-5.53,1.26-8.35-1.85-.14-2.82.95-3.76,1.76a53.87,53.87,0,0,0-6.64,6.52,74.22,74.22,0,0,0-7.41,10.25,31.41,31.41,0,0,1-1.93,3c-2.47,3.4-3.85,7.32-5.46,11.13-.56,1.32-1,2-2.47,1.14-.76-.4-2,.2-2.35-.83a3.76,3.76,0,0,1,.56-3,39.78,39.78,0,0,0,1.85-5.17c1.43-4.13,2.36-8.43,4.11-12.47.64-1.46.8-3.12,1.48-4.55,1.75-3.72,2.77-7.71,4.18-11.55,1.92-5.22,3.71-10.49,5.59-15.73a82.35,82.35,0,0,0,3.24-9.74c.34-1.57,1.45-2.84,1.76-4.43a.75.75,0,0,1,.64-.63,4.06,4.06,0,0,1,3.28,1.18,2,2,0,0,1,.13,2.47c-1.35,2.47-1.86,5.23-2.74,7.85-1.53,4.54-3.29,9-4.82,13.54-1.61,4.73-3.57,9.33-4.75,14.21A21.62,21.62,0,0,1,534.72,308.89Z" transform="translate(-123.32 -154.75)"/><path d="M531.69,403.26a11.2,11.2,0,0,0,3-3.55c2.42-3.55,4.6-7.27,7.06-10.81a114.32,114.32,0,0,0,5.86-10.15c.51-.92,1.13-1.74,1.69-2.6a1.61,1.61,0,0,1,2.06-.63c2.42.65,2.82,1.24,1.81,3.53a138.6,138.6,0,0,1-6.35,12.59c-.12.2-.33.39-.37.61-.89,4.87-3.63,9-5.48,13.47-3.24,7.82-6.89,15.46-10.18,23.24-2.29,5.43-4.3,11-6.39,16.48-.79,2.08-2,4-2.65,6.12-.54,1.7-1.64,2.06-2.94,1.47-1.85-.83-2.18-1.5-1.52-3.37a27.64,27.64,0,0,1,2-4.33,21.38,21.38,0,0,0,1.84-4.86c.89-3.34,2.52-6.38,3.69-9.6,1-2.75,2.27-5.41,3.33-8.15a95.64,95.64,0,0,1,5.3-11.5,1.37,1.37,0,0,0,.08-1.61c-1,.81-1.69,2-3.13,2.07-1.75.11-2.69-.3-3.5-1.87a17.53,17.53,0,0,1-1.7-7.62,135.45,135.45,0,0,1,1.72-23.62c.5-3.27.85-3.34,3.78-1.9a2,2,0,0,1,1.28,2.2c0,2.8-.82,5.49-.91,8.27-.17,5.09-.88,10.18.1,15.26A1,1,0,0,0,531.69,403.26Z" transform="translate(-123.32 -154.75)"/><path d="M505.32,403.32c-1.57,1.24-2,3.21-3.68,4.21-1.36.82-2.51,2-3.86,2.81-3.64,2.31-8.91-.36-9.37-4.7a12,12,0,0,1,.39-4.27,51.68,51.68,0,0,1,6.51-14.83c2.9-4.52,6.41-8.7,11.51-11.11,1.94-.92,4-1.53,5.95-2.45,2.24-1.05,3.89.6,5.45,1.93a20.83,20.83,0,0,1,1.92,2.42,2.86,2.86,0,0,1,.37,2.94c-1.7,4.53-3.36,9.07-5.13,13.57-.69,1.74-.91,3.76-2.6,5-.38.27-.28.7-.28,1.1a12,12,0,0,1-1.18,5.29,5.92,5.92,0,0,0-.64,2c-.36,2.93-1.91,5.39-3.1,8-.53,1.16-1.34,1.33-2.61.89-1.74-.6-2.46-1.35-2.25-2.64a13.48,13.48,0,0,1,1-3.45c.8-1.75.86-3.74,1.9-5.4C505.78,404.35,505.71,403.89,505.32,403.32Zm9.33-25.92c-1.76.43-2.67,1.55-3.87,2.13a19.43,19.43,0,0,0-7.74,7,58.15,58.15,0,0,0-6.44,12.55c-.51,1.44-1.41,2.83-1.24,4.72a13.23,13.23,0,0,0,4-2.88c2.26-2.37,4.15-5.06,6.22-7.58a50.46,50.46,0,0,0,6.46-9.94C512.9,381.54,514.17,379.88,514.65,377.4Z" transform="translate(-123.32 -154.75)"/><path d="M437.64,334.82c-1-.43-1.1-1.94-2.51-1.71-.51.08-.73-.61-.64-1.1a7.28,7.28,0,0,1,.64-2.29c2.09-3.68,2.9-7.94,5.34-11.47a17.18,17.18,0,0,0,1.5-3.51c1.93-5,5-9.43,7-14.41a2.87,2.87,0,0,1,3.38-2,2.35,2.35,0,0,1,2,3.42c-.71,1.19-.88,2.55-1.52,3.75a17.74,17.74,0,0,0-1.44,3.81,19.39,19.39,0,0,0,4.17-3.91c2.46-2.81,4.81-5.71,7.49-8.34a53.82,53.82,0,0,1,5.1-5,11.55,11.55,0,0,1,5.08-2.56c3.76-.6,6.06,1.57,5.64,5.35a36.14,36.14,0,0,1-2.81,10.1q-3.86,9.15-7.84,18.25c-1.58,3.57-3.13,7.15-4.36,10.87-.44,1.34-1.13,1.74-2.35,1.36-1.57-.5-2.44-1-2.32-2.26a12.85,12.85,0,0,1,1.26-4.59c2.26-4.5,3.87-9.27,5.88-13.87a22.44,22.44,0,0,1,1-2.41c2-3.4,3.13-7.16,4.72-10.72a18.4,18.4,0,0,0,1.48-6.81A6.1,6.1,0,0,0,470,297c-4.42,4.51-8.62,9.21-12.77,14-3.92,4.51-8,8.94-11.59,13.71-1.55,2-2.66,4.32-4.24,6.33A20.55,20.55,0,0,1,437.64,334.82Z" transform="translate(-123.32 -154.75)"/><path d="M612.48,387c2.28-.76,3-2.7,4.59-3.77,3.13-2.17,6.16-4.5,9.67-6a4.66,4.66,0,0,1,6.45,5,11,11,0,0,1-1.47,4c-1.84,3.41-3.43,7.06-6.48,9.57-4.61,3.78-9,7.89-14.24,10.85-2.14,1.21-4.44,2.22-7.07,1.73a7.79,7.79,0,0,0-1.42.15c-.82,0-1.8.53-2.4-.45s-.92-2.51-.14-3.41c3-3.41,3.36-7.79,4.76-11.79,1.54-4.42,2.88-8.92,4.43-13.34a88.75,88.75,0,0,0,3.28-10.94,5.31,5.31,0,0,1,.92-2.42,2.25,2.25,0,0,0,.45-1.09c.56-4.55,2.53-8.72,3.53-13.15a4.63,4.63,0,0,1,1.48-2.65,2.88,2.88,0,0,1,3.31-.42c.92.53.69,1.36.41,2.12a57.09,57.09,0,0,0-1.85,6.44c-1.36,5.83-3.29,11.5-4.92,17.25-.67,2.35-1.45,4.67-2.21,7A17.11,17.11,0,0,0,612.48,387Zm14.71-4.14a7.67,7.67,0,0,0-3.18,1.57c-1.79,1.46-3.46,3.07-5.35,4.37s-3.2,3.39-5,4.79c-2.31,1.74-3.43,4.34-4.9,6.69a1.53,1.53,0,0,0-.15,1.84C616.44,397.27,623.16,391.42,627.19,382.85Z" transform="translate(-123.32 -154.75)"/><path d="M566,407.33a18.22,18.22,0,0,1-1.81,1.91c-1.31,1-2.73,2.17-4.53,1.43a4.9,4.9,0,0,1-3.25-4.37,30,30,0,0,1,.11-4.54c.29-3.11,1.39-6.07,1.61-9.18a83.59,83.59,0,0,1,2.19-12.66c.2-.87.4-1.73,1.42-2,.85-.22,3.24.43,3.6,1a1.9,1.9,0,0,1,.08,1.63,159.74,159.74,0,0,0-3.28,16.66c-.35,2.1-.38,4.27-.56,6.54,1.07-.14,1.38-1,1.77-1.56,1.86-3,3.93-5.8,5.58-8.91,1.83-3.48,4.58-6.34,6.88-9.5a19.88,19.88,0,0,0,1.68-3.36c1-2.09,2.57-2.54,4.44-1.22a2.12,2.12,0,0,1,1,2.43,18,18,0,0,1-1.34,4.09c-2.31,4.54-4.34,9.21-6.5,13.82-1.83,3.91-3.52,7.88-5,11.94a126,126,0,0,1-5.08,11.89c-1.2,2.52-1.9,5.21-3,7.73-1.38,3.11-2.23,6.42-4,9.39a38,38,0,0,0-2.79,6.84,14.33,14.33,0,0,1-1.54,3,2,2,0,0,1-2.72.72c-1.36-.62-1.75-1.21-1.48-2.6.38-2,1.46-3.7,2.23-5.52,2.69-6.3,5.61-12.5,7.82-19a33.51,33.51,0,0,1,2.94-6.53,27.56,27.56,0,0,0,1.9-4.61c.64-1.72,1.23-3.45,1.85-5.18Z" transform="translate(-123.32 -154.75)"/><path d="M578.4,322.6c-2,2.38-3.95,4.75-5.94,7.12a36.64,36.64,0,0,1-5.93,5.88c-1.65,1.23-3.39,2.43-5.71,1.44a4.17,4.17,0,0,1-2.7-3.05,9.71,9.71,0,0,1,.34-5.43c1.25-3.69,2.27-7.5,4.29-10.88,3.11-5.19,6.1-10.48,10.1-15.06,2.41-2.76,4.94-5.46,8.72-6.44,2.23-.58,3.24-.25,4.48,1.7a1.06,1.06,0,0,0,.68.58c.92.18,1.16.7.84,1.57a1.92,1.92,0,0,0,1,2.41c1.07.67,1.11,1.57,1,2.7a15.12,15.12,0,0,1-.94,3.2c-2.25,6.3-3.87,12.81-6,19.15-1.64,4.89-3.16,9.83-4.67,14.76a1.89,1.89,0,0,1-3.31.47,5.09,5.09,0,0,1-.88-4.75,93.2,93.2,0,0,1,4-11.72A6.09,6.09,0,0,0,578.4,322.6ZM563.52,331c.58.14.88-.31,1.22-.61a52.55,52.55,0,0,0,9.6-10.87c3.26-4.9,6.28-10,9.4-14.95,1-1.62.82-2.14-.84-2.88a2.18,2.18,0,0,0-2.44.3,20.28,20.28,0,0,0-3.68,4,130.17,130.17,0,0,0-8.26,12,52.86,52.86,0,0,0-4.9,11.4A1.89,1.89,0,0,0,563.52,331Z" transform="translate(-123.32 -154.75)"/><path d="M501.89,327.19c-.93,1.8-2,3-2.77,4.38-1.43,2.51-3.3,4.69-6.38,5.41a18.22,18.22,0,0,0-2.59,1.19,4.63,4.63,0,0,1-5.65-2c-1.29-2.11-.73-4.33-.6-6.51a32.19,32.19,0,0,0,.19-3.81,5.49,5.49,0,0,1,.24-2.13c1-3,1.54-6.18,2.65-9.19a68,68,0,0,0,2-7.12c.55-2.15,1.86-3.82,2.67-5.78a1,1,0,0,1,1.33-.71,12.06,12.06,0,0,1,2.4,1.08,1.8,1.8,0,0,1,.53,2.36c-.67,1.7-1.36,3.4-2,5.1a61,61,0,0,0-3.46,12.4,33.17,33.17,0,0,0-.26,8.32c.05.71.08,1.52,1,1.75.73.18,1.16-.39,1.61-.84a49,49,0,0,0,5.8-7.28q4.73-7.19,9.35-14.43c1.51-2.34,3-4.72,4.4-7.11s3.25-2.68,5.27-1.06c.6.47.48,1.13.36,1.76-.39,2.08-1.52,3.86-2.37,5.74-2.44,5.37-4.61,10.84-6.83,16.3a37,37,0,0,0-2.81,8.82c-.13,1-.77,1.33-1.74,1.05-.46-.14-.94-.2-1.4-.33-1.38-.41-1.7-.85-1.51-2.26.12-.86.38-1.71.56-2.57A3.82,3.82,0,0,0,501.89,327.19Z" transform="translate(-123.32 -154.75)"/><path d="M598.26,382.15c-.7,2-1.48,4.43-2.48,6.83-1.11,2.64-2.26,5.28-3.26,7.94-1.39,3.71-2.86,7.41-4,11.21-.16.54-.37,1.06-.56,1.58a1.6,1.6,0,0,1-2.28,1.06c-.45-.15-.9-.33-1.36-.45-1.1-.26-1.27-1-1.18-2a11.21,11.21,0,0,1,1-2.65c2.22-6.26,4.51-12.5,7-18.65.9-2.21,2.14-4.28,2.49-6.69.12-.85.66-1.32,1.53-.93a5.27,5.27,0,0,0,1.61.3C598.17,379.88,598.37,380.18,598.26,382.15Z" transform="translate(-123.32 -154.75)"/><path d="M599.86,369.09c0,1.78-1,3.28-2.38,3.39-1.11.1-3.21-1.74-3.26-2.85-.06-1.38,1.36-3.27,2.47-3.29C598.67,366.31,599.82,367.31,599.86,369.09Z" transform="translate(-123.32 -154.75)"/></svg>